<?xml version="1.0" standalone="no"?>
<!DOCTYPE svg PUBLIC "-//W3C//DTD SVG 20010904//EN"
 "http://www.w3.org/TR/2001/REC-SVG-20010904/DTD/svg10.dtd">
<svg version="1.0" xmlns="http://www.w3.org/2000/svg"
 width="430.000000pt" height="430.000000pt" viewBox="0 0 430.000000 430.000000"
 preserveAspectRatio="xMidYMid meet">
<metadata>
Created by potrace 1.14, written by Peter Selinger 2001-2017
</metadata>
<g transform="translate(0.000000,430.000000) scale(0.100000,-0.100000)"
fill="#000000" stroke="none">
<path d="M1158 3983 c-2 -4 -3 -28 -2 -53 3 -80 14 -441 19 -605 3 -88 7 -239
10 -335 4 -96 8 -236 10 -310 2 -74 7 -216 10 -315 3 -99 7 -245 10 -325 2
-80 7 -242 11 -360 3 -118 7 -240 8 -270 l1 -55 35 3 c19 1 55 7 80 12 25 5
56 12 70 14 38 7 169 51 231 79 29 13 59 25 64 27 18 6 139 82 205 128 36 26
99 79 142 120 42 41 80 72 84 70 5 -1 10 -22 11 -44 3 -47 29 -246 38 -284 3
-14 7 -37 10 -51 28 -151 97 -356 171 -501 48 -96 53 -105 112 -185 67 -91
128 -145 206 -183 84 -41 127 -48 266 -46 93 1 123 4 135 17 14 14 16 81 15
587 l0 572 280 0 280 0 0 -580 0 -580 308 2 307 3 3 1665 c2 916 0 1692 -3
1725 l-6 60 -376 0 -375 0 -2 -785 -1 -785 -287 -3 -288 -2 0 790 0 790 -501
0 -500 0 6 -22 c4 -13 31 -94 60 -180 29 -87 51 -158 49 -158 -2 0 -32 23 -66
51 -78 62 -203 139 -302 184 -77 35 -242 89 -306 99 -19 3 -46 8 -60 11 -53
11 -168 16 -172 8z m645 -1126 c21 -22 51 -60 67 -84 l29 -43 -85 -115 c-82
-110 -103 -131 -105 -102 0 6 -2 21 -5 32 -11 53 -19 150 -19 243 0 90 2 105
19 117 24 18 48 7 99 -48z"/>
<path d="M307 2983 c-46 -141 -114 -370 -121 -408 -1 -5 -5 -19 -9 -30 -3 -11
-8 -31 -11 -45 -2 -14 -13 -61 -25 -105 -11 -44 -23 -96 -26 -115 -3 -19 -12
-62 -19 -95 -8 -33 -17 -81 -20 -106 -9 -59 -15 -99 -20 -124 -3 -11 -8 -47
-11 -80 -4 -33 -8 -67 -10 -75 -27 -97 -27 -636 0 -770 21 -107 30 -144 52
-210 91 -275 263 -437 521 -490 264 -54 507 25 593 191 54 104 57 224 13 529
-9 58 -17 119 -19 135 -2 17 -8 64 -14 105 -6 41 -13 98 -16 125 -3 28 -8 70
-12 95 -4 25 -7 314 -7 643 l-1 598 -235 120 c-129 66 -302 155 -385 197 -82
42 -153 78 -157 80 -3 2 -31 -72 -61 -165z"/>
</g>
</svg>
